<svg id="Layer_1" data-name="Layer 1" xmlns="http://www.w3.org/2000/svg" viewBox="0 0 233.78 154.87"><defs><style>.cls-1{fill:#fff;}</style></defs><title>games</title><path class="cls-1" d="M378.22,114c-.46,4.22-.68,8.48-1.43,12.64-1,5.29-1.83,10.69-3.69,15.69-3.39,9.08-10.8,13.44-20.28,12.29a20.67,20.67,0,0,1-8-3.1c-8.53-5.17-15.54-12.18-22.39-19.32-4.16-4.34-8.11-8.87-12.11-13.35a16.32,16.32,0,0,0-12.65-5.76H225.13a16.5,16.5,0,0,0-13,6c-8.73,10.06-17.7,19.89-28.19,28.2-2.14,1.7-4.45,3.18-6.72,4.7a18.72,18.72,0,0,1-27-8c-2.51-5.24-3.5-10.84-4.24-16.48a159.73,159.73,0,0,1,6.2-71.18,125,125,0,0,1,17.08-34.62c15-20.93,36.53-27,60.27-16.91a90.86,90.86,0,0,1,12.78,7,26.32,26.32,0,0,0,14.59,4.46c2.81,0,5.63-.05,8.44,0a26.07,26.07,0,0,0,15.61-4.85A62.18,62.18,0,0,1,310,.3c16.41-1.65,29.61,4.64,40,17,10.22,12.19,16.6,26.45,21.32,41.49a149.73,149.73,0,0,1,6.49,35.8c.05.82.26,1.63.39,2.45ZM217.88,52.41c0-4.89,0-9.44,0-14a2,2,0,0,0-1.58-2.33,21.2,21.2,0,0,0-12.56-.53,2.57,2.57,0,0,0-2.25,3c.16,4.54.05,9.08.05,13.85-4.79,0-9.34.09-13.88,0a2.79,2.79,0,0,0-3.13,2.18,16.88,16.88,0,0,0-.08,11.6c.64,1.94,1.67,2.78,3.82,2.64,3-.2,6.08,0,9.12,0H201c0,4.73.07,9.06,0,13.39a3,3,0,0,0,1.81,3.06c3.85,2,7.75,1.75,11.72.4,2-.67,2.9-1.69,2.78-4-.22-4.23-.06-8.48-.06-12.87,5,0,9.72,0,14.43,0a2.67,2.67,0,0,0,2-.94c2.34-4.39,3-8.86.4-13.47a3.13,3.13,0,0,0-3.18-1.92C226.65,52.49,222.4,52.41,217.88,52.41Zm133,5A12.63,12.63,0,1,0,338.4,70.12,12.59,12.59,0,0,0,350.92,57.4ZM319.36,38.72A12.62,12.62,0,1,0,306.79,51.4,12.61,12.61,0,0,0,319.36,38.72Zm0,34.84a12.63,12.63,0,1,0-12.54,12.66A12.57,12.57,0,0,0,319.37,73.56Z" transform="translate(-144.44)"/></svg>