<svg id="Layer_1" data-name="Layer 1" xmlns="http://www.w3.org/2000/svg" viewBox="0 0 211.01 382.76"><defs><style>.cls-1{fill:#fff;}</style></defs><title>live_player_app_icon</title><path class="cls-1" d="M508.25,1173.84c8.31,3.08,11.44,9.21,10.88,17.83-.33,5.08-.06,10.2-.06,15.63H330.65c0-7.59-.51-15.29.17-22.89.52-5.78,5.34-8.62,10.44-10.57ZM425.07,1188c-4.72,0-9.46-.19-14.16.13-1.29.09-2.48,1.73-3.72,2.65,1.13,1.07,2.23,3,3.39,3q14,.38,27.94,0c1.21,0,2.37-1.91,3.55-2.94-1.2-1-2.34-2.67-3.6-2.76C434,1187.8,429.54,1188,425.07,1188Z" transform="translate(-330.11 -1173.84)"/><path class="cls-1" d="M423.18,1454.29c-7.21-9.28-11.59-18.6-13.07-29.35a84.13,84.13,0,0,0-3.78-16,34.2,34.2,0,0,0-31.66-23.35c-7.33-.22-10.66,3.6-9.26,10.79,2.79,14.43,5.67,28.85,8.49,43.28.69,3.52,1.32,7,2,10.85H330.44V1213.93H518.8c.08,1.25.24,2.56.24,3.87q0,92.45,0,184.89a10.71,10.71,0,0,1-1.79,5.21c-3.4-5.67-7.47-9.75-13.74-11.21s-11.49.68-16.22,4.56c-7.9-12.35-15.71-14.56-28.34-7.82-.07-1.45-.18-2.73-.18-4q0-34.07,0-68.12c0-9.65-5.28-16.67-13.93-18.85A17.42,17.42,0,0,0,423.66,1316a40.77,40.77,0,0,0-.46,7.08q0,63.06,0,126.13Z" transform="translate(-330.11 -1173.84)"/><path class="cls-1" d="M532,1556.59c-19.36,0-38.19,0-57,0-13.85,0-27.7-.09-41.54-.36a7.51,7.51,0,0,1-5-2.32,131.77,131.77,0,0,1-22.07-36.68c-6.89-17-14.25-33.75-20.54-50.93-2.93-8-3.93-16.69-5.61-25.11-3-14.9-5.84-29.83-8.76-44.75-.9-4.56-.52-5,4.09-4.79,12.63.67,23,9.61,26.25,22.91,1.48,6,2.71,12.16,3.8,18.29a37.08,37.08,0,0,0,5.44,14.14c4.08,6.27,7.71,12.83,11.75,19.12.79,1.23,2.59,1.83,3.92,2.72.78-1.5,2.23-3,2.24-4.51.14-25.7.1-51.4.1-77.1q0-32.57,0-65.12a22,22,0,0,1,.84-6.63,11.39,11.39,0,0,1,10.95-7.57,12,12,0,0,1,11.07,8.57,24.07,24.07,0,0,1,.66,6.29q.06,48.84,0,97.68c0,1-.33,2.18.09,3a22.46,22.46,0,0,0,2.88,3.56c1-1.19,2.78-2.32,2.87-3.57.34-4.84.13-9.72.15-14.59,0-7.68,4.64-13,11.3-13.17,6.85-.15,12,5.56,12.08,13.36q0,6.93,0,13.85c0,2.22.57,4.42,3.14,3.94,1.15-.22,2.48-2.43,2.73-3.9.44-2.67.09-5.47.13-8.21.12-7,4.95-12.27,11.36-12.43s11.8,5.12,12.07,12.17c.15,3.86,0,7.74.06,11.6,0,2,.34,3.93,2.86,4,2.8.11,3.09-2,3.11-4.09,0-1.87-.06-3.75.06-5.61.44-6.66,5.24-11.43,11.47-11.48A12.12,12.12,0,0,1,541,1420a29.77,29.77,0,0,1,.07,3q0,41.91,0,83.83A138.54,138.54,0,0,1,532,1556.59Z" transform="translate(-330.11 -1173.84)"/><path class="cls-1" d="M330.11,1457H376.4c2.48,6.88,4.8,13.65,7.35,20.34s5.27,13.1,8.18,20.3h-4.25c-13.72,0-27.44,0-41.16,0-11.17,0-16.4-5.35-16.4-16.6C330.11,1473.05,330.11,1465.1,330.11,1457Z" transform="translate(-330.11 -1173.84)"/></svg>