<svg id="Layer_1" data-name="Layer 1" xmlns="http://www.w3.org/2000/svg" viewBox="0 0 329.53 347.19"><defs><style>.cls-1{fill:#fff;}</style></defs><title>live_player_game_icon</title><path class="cls-1" d="M365.76,1151.72h-12v53.46H318.16c-.13-.22-.35-.43-.35-.64,0-18.21-.5-36.45.12-54.64.73-21.13,15.41-40,35.57-47,8.24-2.84,16.61-5.31,25-7.79,1-.29,2.91.07,3.31.76,8.5,14.43,21.82,21.56,37.63,24.5,16.84,3.13,32.77.29,47.28-9.11a45.12,45.12,0,0,0,14.16-14.7c.55-.9,2.19-2,3-1.76,10,3,19.9,6.21,30.43,9.56-1.39,1.09-2.14,1.71-2.91,2.29-13,9.81-19.71,22.86-19.9,39.16-.11,9.6-.06,19.21,0,28.82.05,11.18,7.64,18.71,18.86,18.78,5.12,0,10.25.25,15.34-.1a14.24,14.24,0,0,0,6.78-2.37c4.26-2.92,8.2-6.32,12.72-9.88v24H365.76Z" transform="translate(-317.62 -857.99)"/><path class="cls-1" d="M458,938.4c4.77,14.83,11.68,27.48,28.07,33.06-.68,16,.28,32.45-2.43,48.26-4.43,25.81-28.56,43.07-55.11,41.9-25.25-1.11-47.43-20.75-50.06-46.24-1.5-14.54-.27-29.37-.27-44.35,15.13-5.12,22-17.78,26.81-32.64A104.78,104.78,0,0,0,458,938.4Zm-48.92,83.32c3.82,10.21,12.92,16.3,23.31,16,9.76-.31,18.74-7,21.36-16.05l-10.62-3.74c-6.43,10.94-17.73,9.91-23.41,0Zm-1.7-43.65H395.87V989.6h11.52Zm59.91,0H455.65v11.49H467.3Z" transform="translate(-317.62 -857.99)"/><path class="cls-1" d="M647.13,1159.13c0,5,0,10,0,15,0,5.17-2.19,6.89-7.19,7.48-10,1.19-18.39-1.2-25.61-8.56-4.16-4.24-9.32-7.48-14-11.22a19.08,19.08,0,0,0-12.45-4.28c-8.35.06-16.71.08-25.07,0a19.52,19.52,0,0,0-12.77,4.43c-7.41,5.91-14.81,11.83-22.37,17.54a11.23,11.23,0,0,1-5.69,1.93c-4.09.29-8.22.14-12.34.06-3.46-.07-6.08-1.93-6.09-5.34-.05-12.33-.65-24.77.73-37,1.86-16.37,16.84-29.2,33.32-29.42q37.59-.51,75.19,0c18.33.26,33.55,15.72,34.27,34.06.2,5.1,0,10.22,0,15.34Zm-24-13.64h11.76v-11.88H623.12v-11.77H611.25v11.77H599.48v11.88h11.77v11.77h11.88Zm-83.62,11.88v-12h11.54v-12H539.18v-11.55h-12v11.87H515.62v12h11.87v11.64Zm29.69-35.55H557.57v11.44H569.2Zm12.23,11.53H593v-11.49H581.43Z" transform="translate(-317.62 -857.99)"/><path class="cls-1" d="M509.77,959.76H497.4c0-1.5.05-2.94,0-4.37-.47-11.07.28-22.35-1.68-33.15-5.7-31.51-34.78-53.48-67.55-52.2-31.1,1.21-58.12,26-61.84,56.93a115.85,115.85,0,0,0-.66,11.93c-.1,6.84,0,13.67,0,20.72H354.17c-.08-.08-.39-.26-.39-.45,0-17.9-1.53-35.87,5.73-53.08a78.3,78.3,0,0,1,79.28-47.76c35.13,3.29,64.41,29.94,69.52,65.73C510,935.68,509.34,947.63,509.77,959.76Z" transform="translate(-317.62 -857.99)"/><path class="cls-1" d="M484.32,958.23c-2.56-2.6-5.89-4.8-7.52-7.89A110.75,110.75,0,0,1,469,931.51c-1.89-6.17-4-7.94-10.21-6a89,89,0,0,1-54.8,0c-5.9-1.86-8.18-.05-10,5.87a109.18,109.18,0,0,1-7.5,18.54c-1.69,3.25-5.06,5.62-8.09,8.08-2.43-20.22,2.58-37.6,18.15-51.09a53.65,53.65,0,0,1,58.82-7.31C476.61,910.18,487.2,930.74,484.32,958.23Z" transform="translate(-317.62 -857.99)"/><path class="cls-1" d="M392.38,1090.78c1.81-.63,2.75-.93,3.67-1.29,4.6-1.78,8.06-2,12.83,1.71,13,10.22,39.91,8,49-2.84a3,3,0,0,1,2.49-.84c3.2.85,6.34,2,10.15,3.19-9.22,13.46-22.25,18.32-37.14,18.76C417.09,1110,402.79,1105.22,392.38,1090.78Z" transform="translate(-317.62 -857.99)"/><path class="cls-1" d="M497.56,1007.55V972.07c8.26-1,15.58.28,20.53,7.51,4.33,6.33,4.55,13.09.49,19.65C513.76,1007,506.25,1008.51,497.56,1007.55Z" transform="translate(-317.62 -857.99)"/><path class="cls-1" d="M365.4,1007.56c-8.76,1-16.27-.65-21-8.46-3.85-6.29-3.75-12.84.25-19,4.86-7.53,12.27-9,20.79-8Z" transform="translate(-317.62 -857.99)"/><path class="cls-1" d="M449.48,1071.77a41,41,0,0,1-.11,6.81A5.23,5.23,0,0,1,447,1082a33.27,33.27,0,0,1-30.85,0c-1.28-.63-2.15-2.79-2.51-4.4-.43-1.88-.1-3.94-.1-5.85,6.13.66,12,1.77,17.89,1.78S443.27,1072.42,449.48,1071.77Z" transform="translate(-317.62 -857.99)"/><circle class="cls-1" cx="299.57" cy="281.56" r="8.54"/></svg>