<svg id="Layer_1" data-name="Layer 1" xmlns="http://www.w3.org/2000/svg" viewBox="0 0 383.25 359.3"><defs><style>.cls-1{fill:#fff;}</style></defs><title>payout_icon</title><path class="cls-1" d="M2654.76,1166.89h338.07V1221c-36.94-14.58-72.69-12.53-106,9.39s-49.5,53.62-51.12,93.73H2690.8c-18.74,0-30.87-9.53-35.48-27.83a10,10,0,0,0-.56-1.36Zm90.61,67.37q16.44,0,32.88,0c7.6,0,12.69-4.5,12.73-11.17s-5.08-11.27-12.61-11.27q-33.07,0-66.14,0c-7.51,0-12.62,4.67-12.54,11.34.07,6.52,5.14,11.08,12.42,11.1C2723.2,1234.28,2734.28,1234.26,2745.37,1234.26Zm-.42,44.91c11.21,0,22.42,0,33.63,0,7.29,0,12.33-4.58,12.4-11.12s-5-11.31-12.19-11.32q-33.45,0-66.89,0c-7.19,0-12.26,4.77-12.21,11.3s5.11,11.12,12.37,11.14C2723,1279.19,2734,1279.17,2745,1279.17Z" transform="translate(-2654.76 -1054.6)"/><path class="cls-1" d="M2654.76,1083.8c.56-2,1-4.08,1.71-6.07,4.63-14,17.44-23.09,32.84-23.11q59.51-.06,119,0h148.56c22.16,0,36.21,14.06,36.23,36.22v8.69H2654.76Z" transform="translate(-2654.76 -1054.6)"/><path class="cls-1" d="M2654.76,1122h338.07v22.45H2654.76Z" transform="translate(-2654.76 -1054.6)"/><path class="cls-1" d="M3038,1324.19a89.82,89.82,0,1,1-89.61-89.93A90,90,0,0,1,3038,1324.19Zm-101.15,17.87c-8.59-8.69-16.77-17.06-25.06-25.31-5-5-11.77-5.17-16.37-.68s-4.51,11.49.6,16.64q16.08,16.18,32.27,32.26c5.42,5.38,11.8,5.49,17.18.14q27.58-27.42,55-55c5-5,5.1-11.82.57-16.37s-11.47-4.42-16.64.71q-15.91,15.81-31.74,31.73C2947.56,1331.28,2942.48,1336.41,2936.86,1342.06Z" transform="translate(-2654.76 -1054.6)"/></svg>