<svg id="Layer_1" data-name="Layer 1" xmlns="http://www.w3.org/2000/svg" viewBox="0 0 408.96 346.74"><defs><style>.cls-1{fill:#fff;}</style></defs><title>total_player_icon</title><path class="cls-1" d="M0,239.59c1.72-5.82,2.74-12,5.3-17.4,9.85-20.95,26.45-33,49.66-34.64,11.6-.83,23.32-.15,35.32-.15-.27,1.12-.58,2.1-.73,3.11-1.34,8.9-3.7,17.79-3.8,26.71-.42,38.43-.23,76.87-.12,115.3,0,4.6.9,9.19,1.42,14.13H73.27c-11.7,0-23.41-.31-35.11.07C18.85,347.34,3,334.43.44,316.08c0-.23-.29-.43-.44-.64Z"/><path class="cls-1" d="M204,346.65q-40.3,0-80.6,0c-9.79,0-14.06-4.29-14.06-14.1,0-38.7-.08-77.41,0-116.12.08-29,18.27-52,46.33-58.55a59.26,59.26,0,0,1,13-1.36c23.81-.13,47.62-.2,71.43,0,28.55.2,51.44,18.47,57.86,46.14a64.6,64.6,0,0,1,1.44,14.23q.17,58,.05,116.12c0,9.25-4.41,13.65-13.69,13.65Q244.88,346.67,204,346.65Z"/><path class="cls-1" d="M204.39,141.88c-39,0-70.95-32.15-71-71.31,0-38.75,32.21-70.71,71.19-70.57s70.83,32,70.78,70.6C275.34,109.77,243.33,141.91,204.39,141.88Z"/><path class="cls-1" d="M322.34,346.45c.3-8.88.83-17.47.85-26.07.1-32.86,0-65.73.07-98.59,0-11.1-.78-22-4.45-32.63a9.19,9.19,0,0,1-.22-1.83c1.31-.09,2.45-.26,3.59-.25,10.77.1,21.58-.32,32.31.45a58.38,58.38,0,0,1,54.2,57.25c.38,22.08.31,44.17,0,66.25-.24,19.06-13.77,34.33-32.27,35.23C358.3,347.14,340.05,346.45,322.34,346.45Z"/><path class="cls-1" d="M26.71,119.26c-.18-29.08,23.67-53,53-53.09a53,53,0,0,1,.22,106.06C50.79,172.36,26.9,148.55,26.71,119.26Z"/><path class="cls-1" d="M382.09,119.06a53.26,53.26,0,0,1-53,53.17c-28.94.16-52.84-23.71-53.09-53-.24-29.09,23.61-53,52.92-53A53.07,53.07,0,0,1,382.09,119.06Z"/></svg>