<svg id="Layer_1" data-name="Layer 1" xmlns="http://www.w3.org/2000/svg" viewBox="0 0 401.33 321.03"><defs><style>.cls-1{fill:#fff;}</style></defs><title>total_withdraw_icon</title><path class="cls-1" d="M3653.42,1584.29a38.3,38.3,0,0,1-4.9-4.22c-36.23-43.13-72.65-86.08-111.11-127.27a11.4,11.4,0,0,1-3.32-8.43c.15-8.36,0-16.72.06-25.08,0-6.59,2.7-9.15,9.4-9.25,12.75-.18,25.52,0,38.22-.78,14.65-.94,28.66-4.6,40.74-13.57a42.2,42.2,0,0,0,15.57-21.8,18.65,18.65,0,0,0,.37-2.12H3544c-7.69,0-9.83-2.16-9.84-9.88,0-6.27,0-12.54,0-18.81,0-6.71,2.36-9.07,9-9.08h92.27a37.56,37.56,0,0,0-15.64-16.28c-11.29-6.39-23.68-8.7-36.39-9.16-13-.47-26.13-.26-39.19-.32-7.7,0-10.09-2.42-10.1-10.13,0-8.67,0-17.34,0-26,0-6.26,2.55-8.81,8.72-8.82q93.43,0,186.88,0c6,0,8.57,2.54,8.66,8.59q.15,10.34,0,20.69c-.09,6-2.61,8.48-8.69,8.5-15.89,0-31.78,0-47.66,0h-3.71c2.5,4.28,5.12,7.94,6.87,12,2.52,5.81,4.53,11.85,6.5,17.88.71,2.18,1.46,3.16,4,3.12,11.39-.16,22.78-.09,34.18-.06,6.53,0,8.91,2.39,8.94,8.85,0,6.9.06,13.79,0,20.69-.06,5.61-2.68,8.19-8.33,8.22-11.39,0-22.78.06-34.18,0-2.24,0-3.21.47-3.66,2.92-3.64,20-12.94,36.89-28.46,50.17-13.89,11.87-30.12,18.94-47.85,22.76-4.88,1-9.82,1.83-15.14,2.82.93,1.07,1.69,2,2.51,2.89,35.25,38.18,68.27,78.26,101.24,118.38,4,4.81,3.09,8.74-2.6,12.63Z" transform="translate(-3534.09 -1263.26)"/><path class="cls-1" d="M3857,1500v-7.34q0-92.88,0-185.76c0-6.14.15-12.28-.1-18.4-.49-12-10.08-21.81-22.22-23.11-13.39-1.45-25.18,5.56-28.61,17.44a39,39,0,0,0-1,10.81q-.09,99.49-.05,199V1500c-2.45-2.1-3.93-3.28-5.3-4.57-9.53-8.93-18.92-18-28.6-26.79a27.08,27.08,0,0,0-36.85-.05c-10.12,9.47-10.38,24.71.05,34.63q38.91,37,78.3,73.61c10.7,9.94,26.1,10,36.78,0q39.38-36.58,78.3-73.61c10.45-9.94,10.21-25.11.1-34.62-10.35-9.73-26.34-9.65-37.29.38-9.49,8.7-18.76,17.61-28.15,26.41C3861,1496.7,3859.47,1497.88,3857,1500Z" transform="translate(-3534.09 -1263.26)"/></svg>