<svg id="Layer_1" data-name="Layer 1" xmlns="http://www.w3.org/2000/svg" viewBox="0 0 388.7 330.08"><defs><style>.cls-1{fill:#fff;}</style></defs><title>total_income_icon</title><path class="cls-1" d="M388.7,335.91c-.48,7-1.06,14.09-1.42,21.14-.63,12.38-1.1,24.76-1.7,37.14-.24,5.11-1.65,9.68-6.11,12.85-4.88,3.47-9.7,3.56-14.16-.49-5.6-5.11-10.92-10.53-16.3-15.88a51.94,51.94,0,0,1-3.67-4.86c-1.46,2.23-2.1,3.7-3.16,4.76Q267.5,465.35,192.74,540.06c-8.07,8.07-17.24,9.79-25.67,4.66a32.21,32.21,0,0,1-5.82-4.82Q133,511.78,104.89,483.56c-1-1-1.75-2.14-2.8-3.45-1.52,1.4-2.54,2.28-3.49,3.23C78.82,503.1,59,522.8,39.32,542.67c-6,6-12.74,9.56-21.09,6.94a25.66,25.66,0,0,1-17.52-18C-1,525.82.53,520.39,4,515.54a35.24,35.24,0,0,1,3.81-4.21q38.91-38.91,77.85-77.79c10.63-10.61,21.34-10.58,32,.08L174.07,490c1,1,2,1.9,2.58,2.47L314.11,355.28c-6.05-5.89-12.32-11.75-18.31-17.89-5-5.1-5.31-10.54-1.42-15.73,2.57-3.44,6.25-4.53,10.31-4.73q22.55-1.12,45.1-2.25c7.45-.36,14.92-.48,22.36-1,7.7-.55,13.67,1.56,16.55,9.35Z" transform="translate(0 -313.58)"/><path class="cls-1" d="M345.4,420.51c3.82,2,4.91,4.88,4.91,9q-.19,101.48-.09,202.93c0,1.26,0,2.53-.05,3.79-.29,4.56-2.57,7.25-7,7.29q-24.27.21-48.55,0c-4.46,0-6.73-2.76-7-7.31-.05-1,0-2,0-3q0-75.48-.06-151a8.88,8.88,0,0,1,2.88-6.93q26.26-26,52.34-52.26C343.61,422.13,344.55,421.31,345.4,420.51Z" transform="translate(0 -313.58)"/><path class="cls-1" d="M263.31,503.81v3.39q0,63,0,126c0,8.25-2.13,10.43-10.23,10.44q-21.45,0-42.89,0c-7.49,0-9.72-2.26-9.72-9.75,0-22.14,0-44.28-.06-66.41a5.86,5.86,0,0,1,2.83-5.59,44.66,44.66,0,0,0,6.23-5.53q25.13-25.07,50.17-50.2a16.92,16.92,0,0,0,2.1-3.59Z" transform="translate(0 -313.58)"/><path class="cls-1" d="M113.57,525.11c8.12,8.13,15.52,15.55,22.93,22.95,4,4,8,8.12,12.17,12a40.24,40.24,0,0,0,23.81,10.57c1.11.11,2.22.3,3.52.48.06,1.26.17,2.37.17,3.47q0,29.78,0,59.55c0,7.22-2.28,9.52-9.53,9.53q-22,0-44,0c-6.71,0-9.25-2.47-9.25-9.09q-.06-53.1,0-106.2C113.38,527.61,113.46,526.89,113.57,525.11Z" transform="translate(0 -313.58)"/><path class="cls-1" d="M26.47,573.54c13.06-1,22.74-7.43,31.28-16.25C67.75,547,78,536.87,88.83,526.06c.14,2,.28,3.12.28,4.29q0,51.79,0,103.61c0,7.48-2.21,9.66-9.75,9.67q-21.63,0-43.26,0c-7.49,0-9.63-2.19-9.64-9.75q0-28.1,0-56.17Z" transform="translate(0 -313.58)"/></svg>